<svg width="22" height="22" viewBox="0 0 22 22" fill="none" xmlns="http://www.w3.org/2000/svg">
<path d="M10.7314 13.9397L15.3147 9.35639L14.0184 8.06003L10.0832 11.9952L7.52306 9.43503L6.22669 10.7314L9.43503 13.9397C9.79301 14.2977 10.3734 14.2977 10.7314 13.9397Z" fill="#31B546"/>
<path fill-rule="evenodd" clip-rule="evenodd" d="M10.9999 1.83325C5.93731 1.83325 1.83325 5.93731 1.83325 10.9999C1.83325 16.0625 5.93731 20.1666 10.9999 20.1666C16.0625 20.1666 20.1666 16.0625 20.1666 10.9999C20.1666 5.93731 16.0625 1.83325 10.9999 1.83325ZM3.66659 10.9999C3.66659 6.94983 6.94983 3.66659 10.9999 3.66659C15.05 3.66659 18.3333 6.94983 18.3333 10.9999C18.3333 15.05 15.05 18.3333 10.9999 18.3333C6.94983 18.3333 3.66659 15.05 3.66659 10.9999Z" fill="#31B546"/>
</svg>
