<svg width="22" height="22" viewBox="0 0 22 22" fill="none" xmlns="http://www.w3.org/2000/svg">
<path d="M10.082 11.9166V6.41665H11.9154V11.9166H10.082Z" fill="#F3B821"/>
<path d="M10.9987 15.5833C10.3659 15.5833 9.85286 15.0703 9.85286 14.4375C9.85286 13.8047 10.3659 13.2916 10.9987 13.2916C11.6315 13.2916 12.1445 13.8047 12.1445 14.4375C12.1445 15.0703 11.6315 15.5833 10.9987 15.5833Z" fill="#F3B821"/>
<path fill-rule="evenodd" clip-rule="evenodd" d="M10.9987 20.1666C5.93609 20.1666 1.83203 16.0626 1.83203 11C1.83203 5.93737 5.93609 1.83331 10.9987 1.83331C16.0613 1.83331 20.1654 5.93737 20.1654 11C20.1654 16.0626 16.0613 20.1666 10.9987 20.1666ZM10.9987 18.3333C15.0488 18.3333 18.332 15.0501 18.332 11C18.332 6.94989 15.0488 3.66665 10.9987 3.66665C6.94861 3.66665 3.66536 6.94989 3.66536 11C3.66536 15.0501 6.94861 18.3333 10.9987 18.3333Z" fill="#F3B821"/>
</svg>
