<svg width="100" height="40" viewBox="0 0 100 40" fill="none" xmlns="http://www.w3.org/2000/svg">
<path d="M0.753729 39V1.18182H26.2367V7.77415H8.74947V16.7855H24.9256V23.3778H8.74947V32.4077H26.3105V39H0.753729ZM32.5936 39V1.18182H47.514C50.3824 1.18182 52.8261 1.72964 54.845 2.82528C56.8639 3.90862 58.4028 5.41667 59.4615 7.34943C60.5325 9.26989 61.068 11.4858 61.068 13.9972C61.068 16.5085 60.5263 18.7244 59.443 20.6449C58.3597 22.5653 56.7901 24.0611 54.7342 25.1321C52.6906 26.2031 50.2162 26.7386 47.3109 26.7386H37.801V20.331H46.0183C47.5571 20.331 48.8251 20.0663 49.8223 19.5369C50.8317 18.9953 51.5827 18.2505 52.0751 17.3026C52.5798 16.3423 52.8322 15.2405 52.8322 13.9972C52.8322 12.7415 52.5798 11.6458 52.0751 10.7102C51.5827 9.76231 50.8317 9.02983 49.8223 8.51278C48.8128 7.98343 47.5325 7.71875 45.9814 7.71875H40.5893V39H32.5936ZM91.3382 13.4062C91.0797 12.5076 90.7166 11.7135 90.2488 11.0241C89.781 10.3224 89.2085 9.73153 88.5314 9.25142C87.8667 8.759 87.1034 8.38352 86.2417 8.125C85.3922 7.86648 84.4505 7.73722 83.4164 7.73722C81.4836 7.73722 79.7847 8.21733 78.3198 9.17755C76.8671 10.1378 75.7346 11.535 74.9221 13.3693C74.1096 15.1913 73.7033 17.4195 73.7033 20.054C73.7033 22.6884 74.1034 24.929 74.9036 26.7756C75.7038 28.6222 76.8364 30.0317 78.3013 31.0043C79.7663 31.9645 81.4959 32.4446 83.4902 32.4446C85.2999 32.4446 86.8449 32.1245 88.1252 31.4844C89.4178 30.8319 90.4026 29.9148 91.0797 28.733C91.7691 27.5511 92.1138 26.1539 92.1138 24.5412L93.7388 24.7812H83.9888V18.7614H99.8141V23.5256C99.8141 26.8494 99.1124 29.7055 97.709 32.0938C96.3056 34.4697 94.3728 36.304 91.9107 37.5966C89.4486 38.8769 86.6294 39.517 83.4533 39.517C79.9078 39.517 76.7933 38.7353 74.1096 37.1719C71.4258 35.5961 69.333 33.3617 67.8311 30.4688C66.3416 27.5634 65.5968 24.1165 65.5968 20.1278C65.5968 17.0625 66.04 14.3295 66.9263 11.929C67.825 9.5161 69.0807 7.47254 70.6934 5.7983C72.306 4.12405 74.1834 2.8499 76.3255 1.97585C78.4675 1.1018 80.7881 0.664771 83.2871 0.664771C85.4292 0.664771 87.4235 0.978692 89.2701 1.60653C91.1167 2.22206 92.754 3.09612 94.182 4.22869C95.6223 5.36127 96.798 6.70928 97.709 8.27273C98.62 9.82386 99.2047 11.535 99.4632 13.4062H91.3382Z" fill="#141152"/>
</svg>
